<svg width="70" height="70" viewBox="0 0 70 70" fill="none" xmlns="http://www.w3.org/2000/svg">
<path d="M62.5275 31.9047L55.7025 27.8097C54.0033 26.7891 52.0584 26.2499 50.0763 26.25H17.0209L15.6625 20.8141C15.4266 19.8672 14.8806 19.0265 14.1116 18.4259C13.3425 17.8253 12.3945 17.4994 11.4187 17.5H8.75C7.59003 17.5012 6.47791 17.9625 5.65769 18.7827C4.83747 19.6029 4.37616 20.715 4.375 21.875V37.1875C4.37674 38.9275 5.0687 40.5956 6.29903 41.826C7.52936 43.0563 9.19755 43.7483 10.9375 43.75H26.25V56.875C26.2512 58.035 26.7125 59.1471 27.5327 59.9673C28.3529 60.7875 29.465 61.2488 30.625 61.25H33.4841C34.3742 61.2473 35.2426 60.9745 35.9742 60.4674C36.7058 59.9604 37.2662 59.2432 37.5812 58.4106L43.0784 43.75H59.2484C60.6433 43.7504 61.9998 43.2935 63.1101 42.4492C64.2204 41.605 65.0233 40.4199 65.3956 39.0757C65.768 37.7315 65.6893 36.3022 65.1717 35.007C64.654 33.7118 63.7259 32.622 62.5297 31.9047H62.5275ZM59.2463 39.375H40.0466L33.4841 56.875H30.625V39.375H10.9375C10.3573 39.375 9.80094 39.1445 9.3907 38.7343C8.98047 38.3241 8.75 37.7677 8.75 37.1875V21.875H11.4187L13.6062 30.625H21.875V35H26.25V30.625H32.8125V35H37.1875V30.625H43.75V35H48.125V30.625H50.0763C51.2654 30.6253 52.4322 30.9489 53.4516 31.5613L60.2766 35.6562C60.6522 35.8812 60.9437 36.2231 61.1064 36.6296C61.2691 37.0361 61.2941 37.4848 61.1774 37.9068C61.0607 38.3288 60.8089 38.7009 60.4605 38.9661C60.112 39.2313 59.6863 39.3749 59.2484 39.375H59.2463Z" fill="#F7C600"/>
<path d="M30.625 8.75003H33.5191L38.7691 21.875H43.4809L37.5812 7.12471C37.2589 6.31121 36.699 5.61372 35.9743 5.12322C35.2497 4.63272 34.3941 4.37199 33.5191 4.37503H30.625C29.465 4.37618 28.3529 4.83749 27.5327 5.65771C26.7125 6.47793 26.2512 7.59006 26.25 8.75003V21.875H30.625V8.75003Z" fill="#EB5757"/>
</svg>
