<svg width="60" height="60" viewBox="0 0 60 60" fill="none" xmlns="http://www.w3.org/2000/svg">
<path d="M59.6166 13.5999C59.4889 12.7888 59.1177 12.0356 58.5521 11.4403C57.9866 10.845 57.2535 10.4357 56.4499 10.2666L46.6666 8.11659C45.6175 7.88777 44.5314 7.88691 43.4819 8.11407C42.4324 8.34122 41.4439 8.79109 40.5833 9.43325L11.6666 30.4999L3.56661 30.1666C2.91547 30.1433 2.27353 30.3257 1.73199 30.688C1.19044 31.0503 0.776815 31.574 0.549859 32.1848C0.322902 32.7955 0.294154 33.4623 0.467699 34.0903C0.641243 34.7183 1.00826 35.2757 1.51661 35.6833L9.84994 42.2333C10.8499 43.4499 11.5166 43.2166 28.0666 34.1999L29.6166 49.8999C29.6424 50.3282 29.7892 50.7404 30.04 51.0885C30.2908 51.4367 30.6352 51.7065 31.0333 51.8666C31.3197 51.9798 31.6253 52.0364 31.9333 52.0333C32.5531 52.0143 33.1452 51.7716 33.5999 51.3499L37.5833 47.7166C37.9799 47.3491 38.2486 46.8644 38.3499 46.3333L41.9999 26.4999C47.9499 23.1666 53.5833 20.0333 57.5999 17.7499C58.3186 17.3457 58.8967 16.7318 59.257 15.9902C59.6174 15.2486 59.7429 14.4147 59.6166 13.5999ZM55.9499 14.8499C51.7833 17.2166 45.9499 20.5333 39.6833 23.9666L38.9999 24.3499L35.1166 45.4666L32.6666 47.6999L30.8333 28.8666L28.6166 29.9999C16.6666 36.6666 12.6833 38.5999 11.3166 39.1999L4.14994 33.5166L12.6166 33.8833L42.6166 12.1166C43.0882 11.764 43.6288 11.515 44.2032 11.3858C44.7776 11.2565 45.3728 11.25 45.9499 11.3666L55.6999 13.4666C55.8502 13.4938 55.9878 13.5683 56.0927 13.6793C56.1977 13.7902 56.2644 13.9317 56.2833 14.0833C56.3176 14.2299 56.3037 14.3837 56.2436 14.5218C56.1836 14.6599 56.0806 14.775 55.9499 14.8499Z" fill="white"/>
<path d="M11.6666 20.8999L17.5999 22.5666L20.3332 20.5833L13.6666 18.6499L16.6666 16.8166L25.7832 16.5499L29.6166 13.7666L16.6666 14.1666C16.2583 14.1445 15.8526 14.2431 15.4999 14.4499L11.1166 16.9999C10.7542 17.2146 10.4635 17.5318 10.281 17.9114C10.0986 18.2911 10.0326 18.7162 10.0915 19.1333C10.1503 19.5504 10.3312 19.9407 10.6115 20.2551C10.8919 20.5695 11.2589 20.7938 11.6666 20.8999Z" fill="white"/>
</svg>
