<svg width="19" height="15" viewBox="0 0 19 15" fill="none" xmlns="http://www.w3.org/2000/svg">
<path d="M0 7.49989C0 7.07953 0.31237 6.73213 0.71765 6.67715L0.83032 6.66957L15.4262 6.67023L10.1532 1.41871C9.8282 1.09515 9.82707 0.569419 10.1506 0.244461C10.4448 -0.0509548 10.906 -0.0787468 11.2316 0.161737L11.3249 0.241932L18.0228 6.91106C18.0656 6.95371 18.1028 6.99987 18.1344 7.04861C18.1433 7.06329 18.1524 7.0783 18.161 7.09361C18.1689 7.10673 18.1761 7.12036 18.1828 7.13414C18.1922 7.15419 18.2014 7.1749 18.2097 7.19604C18.2164 7.21234 18.2221 7.22819 18.2272 7.24416C18.2333 7.26397 18.2393 7.28508 18.2444 7.30651C18.2482 7.32148 18.2512 7.33588 18.2538 7.35034C18.2575 7.37185 18.2607 7.39411 18.2629 7.41664C18.2648 7.43382 18.266 7.45084 18.2667 7.46788C18.2668 7.47821 18.267 7.48902 18.267 7.49989L18.2666 7.53205C18.266 7.54835 18.2649 7.56463 18.2633 7.58088L18.267 7.49989C18.267 7.55229 18.2622 7.60355 18.2529 7.65326C18.2507 7.66513 18.2482 7.67731 18.2453 7.68945C18.2394 7.71445 18.2326 7.73851 18.2248 7.76211C18.2209 7.77384 18.2164 7.78636 18.2116 7.7988C18.2019 7.82378 18.1914 7.8476 18.1798 7.8708C18.1744 7.88171 18.1684 7.89313 18.162 7.90443C18.1517 7.92287 18.141 7.9404 18.1297 7.95748C18.1217 7.96957 18.1129 7.98216 18.1036 7.99454L18.0965 8.00411C18.0741 8.03334 18.0498 8.06103 18.0238 8.08701L18.0228 8.08779L11.3249 14.758C11 15.0816 10.4743 15.0805 10.1507 14.7556C9.85651 14.4602 9.83067 13.9989 10.0725 13.6743L10.1531 13.5813L15.424 8.33087L0.83032 8.33021C0.371747 8.33021 0 7.95846 0 7.49989Z" fill="#EB5757"/>
</svg>
