<svg width="46" height="46" viewBox="0 0 46 46" fill="none" xmlns="http://www.w3.org/2000/svg">
<path d="M42.4514 18.5078H30.9514C30.7537 18.5078 30.592 18.6695 30.592 18.8672V21.0234C30.592 21.2211 30.7537 21.3828 30.9514 21.3828H42.4514C42.649 21.3828 42.8107 21.2211 42.8107 21.0234V18.8672C42.8107 18.6695 42.649 18.5078 42.4514 18.5078ZM36.4318 24.6172H30.9514C30.7537 24.6172 30.592 24.7789 30.592 24.9766V27.1328C30.592 27.3305 30.7537 27.4922 30.9514 27.4922H36.4318C36.6295 27.4922 36.7912 27.3305 36.7912 27.1328V24.9766C36.7912 24.7789 36.6295 24.6172 36.4318 24.6172ZM21.4414 14.4873H19.4963C19.2178 14.4873 18.9932 14.7119 18.9932 14.9904V26.1311C18.9932 26.2928 19.0695 26.441 19.1998 26.5354L25.8887 31.4139C26.1133 31.5756 26.4277 31.5307 26.5895 31.3061L27.7439 29.7293V29.7248C27.9057 29.5002 27.8562 29.1857 27.6316 29.024L21.94 24.9092V14.9904C21.9445 14.7119 21.7154 14.4873 21.4414 14.4873Z" fill="#F2994A"/>
<path d="M36.1531 30.2729H33.5567C33.3051 30.2729 33.067 30.4032 32.9322 30.6188C32.3617 31.5217 31.6969 32.3573 30.9332 33.1209C29.617 34.4371 28.0852 35.4703 26.3826 36.1891C24.6172 36.9348 22.744 37.3121 20.8123 37.3121C18.8762 37.3121 17.003 36.9348 15.242 36.1891C13.5395 35.4703 12.0076 34.4371 10.6914 33.1209C9.37522 31.8047 8.34202 30.2729 7.62327 28.5704C6.87757 26.8094 6.50022 24.9362 6.50022 23C6.50022 21.0639 6.87757 19.1952 7.62327 17.4297C8.34202 15.7272 9.37522 14.1954 10.6914 12.8791C12.0076 11.5629 13.5395 10.5297 15.242 9.81099C17.003 9.06528 18.8807 8.68794 20.8123 8.68794C22.7485 8.68794 24.6217 9.06528 26.3826 9.81099C28.0852 10.5297 29.617 11.5629 30.9332 12.8791C31.6969 13.6428 32.3617 14.4784 32.9322 15.3813C33.067 15.5969 33.3051 15.7272 33.5567 15.7272H36.1531C36.4631 15.7272 36.6608 15.4038 36.5215 15.1297C33.5926 9.30337 27.6539 5.51646 21.0235 5.44009C11.3158 5.3188 3.25237 13.2655 3.23441 22.9641C3.21644 32.6807 11.0912 40.5645 20.8078 40.5645C27.5237 40.5645 33.5611 36.7641 36.5215 30.8703C36.6608 30.5963 36.4586 30.2729 36.1531 30.2729Z" fill="#F2994A"/>
</svg>
