<svg width="33" height="30" viewBox="0 0 33 30" fill="none" xmlns="http://www.w3.org/2000/svg">
<path fill-rule="evenodd" clip-rule="evenodd" d="M8.71431 7.68408C9.38652 7.68408 9.93207 8.22964 9.93207 8.90185C9.93207 9.57405 9.38652 10.1196 8.71431 10.1196H7.18642C4.5658 10.1196 2.43553 12.2483 2.43553 14.8673V22.799C2.43553 25.4277 4.57229 27.5645 7.20104 27.5645H25.2889C27.9063 27.5645 30.0381 25.4326 30.0381 22.8152V14.8851C30.0381 12.2564 27.8998 10.1196 25.2743 10.1196H23.761C23.0888 10.1196 22.5432 9.57405 22.5432 8.90185C22.5432 8.22964 23.0888 7.68408 23.761 7.68408H25.2743C29.2442 7.68408 32.4737 10.9152 32.4737 14.8851V22.8152C32.4737 26.777 29.249 30 25.2889 30H7.20104C3.23113 30 0 26.7705 0 22.799V14.8673C0 10.9055 3.22301 7.68408 7.18642 7.68408H8.71431ZM16.2381 0C16.9103 0 17.4559 0.545558 17.4559 1.21776L17.4546 17.8216L20.1106 15.1555C20.5847 14.6781 21.3544 14.6781 21.8317 15.1522C22.3075 15.6263 22.3091 16.3976 21.835 16.8749L17.1113 21.6172C17.0651 21.6646 17.0152 21.7083 16.9619 21.7478L17.1003 21.6275C17.048 21.6805 16.9913 21.7281 16.931 21.77C16.8941 21.7954 16.8567 21.8185 16.818 21.8395C16.7994 21.8496 16.7798 21.8596 16.76 21.869C16.7246 21.8858 16.6882 21.901 16.651 21.9144C16.6324 21.921 16.6138 21.9272 16.595 21.933C16.5493 21.9471 16.5022 21.9586 16.4542 21.9672C16.4434 21.969 16.4336 21.9706 16.4237 21.9721C16.385 21.9782 16.3446 21.9824 16.3036 21.9846C16.2815 21.9857 16.2599 21.9863 16.2381 21.9863L16.1735 21.9814L16.073 21.9752C16.0658 21.9742 16.0587 21.9732 16.0515 21.9721L16.2381 21.9863C16.1656 21.9863 16.0936 21.9798 16.023 21.9672C15.9742 21.9586 15.9272 21.9472 15.8815 21.9332C15.8632 21.9274 15.8452 21.9215 15.8274 21.9151C15.7901 21.9019 15.7532 21.8865 15.7174 21.8695C15.6956 21.8592 15.6739 21.8481 15.6526 21.8364C15.6226 21.8199 15.5936 21.8023 15.5655 21.7837C15.5463 21.771 15.5271 21.7574 15.5082 21.7432C15.4618 21.7084 15.418 21.6704 15.3772 21.6295L15.376 21.6275L10.6413 16.8749C10.1672 16.3976 10.1688 15.6263 10.6445 15.1522C11.1219 14.6781 11.8915 14.6781 12.3657 15.1555L15.0191 17.8216L15.0204 1.21776C15.0204 0.545558 15.5659 0 16.2381 0Z" fill="#050D36"/>
</svg>
