<svg width="60" height="60" viewBox="0 0 60 60" fill="none" xmlns="http://www.w3.org/2000/svg">
<path d="M37.5 56.25H22.5V41.25H37.5V56.25ZM26.25 52.5H33.75V45H26.25V52.5Z" fill="white"/>
<path d="M60 20.625H41.25V24.375H48.75V30H11.25V24.375H18.75V20.625H0V24.375H7.5V33.75H17.1225L11.25 42.5569V50.625H15V43.6931L21.6281 33.75H38.3719L45 43.6931V50.625H48.75V42.5569L42.8775 33.75H52.5V24.375H60V20.625ZM30 11.25C28.5228 11.2495 27.0601 11.5407 25.6958 12.107C24.3315 12.6733 23.0926 13.5035 22.05 14.55L24.6994 17.1994C25.395 16.5024 26.2212 15.9494 27.1307 15.5722C28.0403 15.1949 29.0153 15.0007 30 15.0007C30.9847 15.0007 31.9597 15.1949 32.8693 15.5722C33.7788 15.9494 34.605 16.5024 35.3006 17.1994L37.9519 14.5481C36.909 13.5017 35.6697 12.6716 34.305 12.1056C32.9404 11.5397 31.4774 11.2489 30 11.25Z" fill="white"/>
<path d="M16.7473 9.24771L19.3986 11.899C20.7897 10.505 22.4422 9.39909 24.2613 8.64454C26.0804 7.88998 28.0304 7.50158 29.9998 7.50158C31.9692 7.50158 33.9193 7.88998 35.7384 8.64454C37.5575 9.39909 39.2099 10.505 40.6011 11.899L43.2523 9.24771C41.5134 7.50476 39.4478 6.12194 37.1738 5.17843C34.8997 4.23493 32.4618 3.74927 29.9998 3.74927C27.5378 3.74927 25.0999 4.23493 22.8259 5.17843C20.5518 6.12194 18.4862 7.50476 16.7473 9.24771Z" fill="white"/>
</svg>
