<svg width="70" height="70" viewBox="0 0 70 70" fill="none" xmlns="http://www.w3.org/2000/svg">
<path d="M43.75 65.625H26.25V48.125H43.75V65.625ZM30.625 61.25H39.375V52.5H30.625V61.25Z" fill="#EB5757"/>
<path d="M70 24.0625H48.125V28.4375H56.875V35H13.125V28.4375H21.875V24.0625H0V28.4375H8.75V39.375H19.9762L13.125 49.6497V59.0625H17.5V50.9753L25.2328 39.375H44.7672L52.5 50.9753V59.0625H56.875V49.6497L50.0238 39.375H61.25V28.4375H70V24.0625ZM35 13.125C33.2766 13.1244 31.5701 13.4642 29.9785 14.1249C28.3868 14.7855 26.9413 15.7541 25.725 16.975L28.8159 20.0659C29.6275 19.2528 30.5914 18.6077 31.6525 18.1675C32.7137 17.7274 33.8512 17.5008 35 17.5008C36.1488 17.5008 37.2863 17.7274 38.3475 18.1675C39.4086 18.6077 40.3725 19.2528 41.1841 20.0659L44.2772 16.9728C43.0605 15.752 41.6146 14.7836 40.0225 14.1233C38.4304 13.4629 36.7236 13.1237 35 13.125Z" fill="#F7C600"/>
<path d="M19.5386 10.7889L22.6317 13.882C24.2547 12.2557 26.1826 10.9655 28.3049 10.0852C30.4271 9.20485 32.7022 8.75172 34.9998 8.75172C37.2974 8.75172 39.5725 9.20485 41.6948 10.0852C43.8171 10.9655 45.7449 12.2557 47.3679 13.882L50.4611 10.7889C48.4324 8.75543 46.0225 7.14214 43.3694 6.04138C40.7163 4.94062 37.8722 4.37402 34.9998 4.37402C32.1275 4.37402 29.2833 4.94062 26.6302 6.04138C23.9772 7.14214 21.5673 8.75543 19.5386 10.7889Z" fill="#EB5757"/>
</svg>
