<svg width="40" height="32" viewBox="0 0 40 32" fill="none" xmlns="http://www.w3.org/2000/svg">
<path fill-rule="evenodd" clip-rule="evenodd" d="M31.9104 0C35.9918 0 39.3125 3.28777 39.3125 7.32709L39.3143 12.0704C39.3143 12.4325 39.1698 12.7835 38.912 13.0395C38.656 13.2974 38.3067 13.4418 37.9429 13.4418C36.5038 13.4418 35.3335 14.5902 35.3335 16.0018C35.3335 17.4135 36.5038 18.5618 37.9429 18.5618C38.6999 18.5618 39.3143 19.1762 39.3143 19.9333V24.6729C39.3143 28.7122 35.9936 32 31.9122 32H7.40206C3.32069 32 0 28.7122 0 24.6729V19.9333C0 19.1762 0.6144 18.5618 1.37143 18.5618C2.81051 18.5618 3.9808 17.4135 3.9808 16.0018C3.9808 14.6304 2.85806 13.5954 1.37143 13.5954C1.00754 13.5954 0.658286 13.451 0.402286 13.1931C0.144457 12.9371 0 12.5861 0 12.224L0.00182857 7.32709C0.00182857 3.28777 3.32251 0 7.40389 0H31.9104ZM31.9104 2.74286H24.4096L24.4107 6.25591C24.4107 7.01294 23.7963 7.62734 23.0393 7.62734C22.2822 7.62734 21.6678 7.01294 21.6678 6.25591L21.6667 2.74286H7.40389C4.83474 2.74286 2.74469 4.8 2.74469 7.32709L2.74286 11.0171C5.05966 11.5858 6.72366 13.5717 6.72366 16.0018C6.72366 18.4558 5.0304 20.5257 2.74286 21.1273V24.6729C2.74286 27.2 4.83291 29.2571 7.40206 29.2571H21.6667L21.6678 26.5353C21.6678 25.7765 22.2822 25.1639 23.0393 25.1639C23.7963 25.1639 24.4107 25.7765 24.4107 26.5353L24.4096 29.2571H31.9122C34.4814 29.2571 36.5714 27.2 36.5714 24.6729V21.1273C34.2839 20.5257 32.5906 18.4558 32.5906 16.0018C32.5906 13.5461 34.2821 11.4779 36.5714 10.8763L36.5696 7.32709C36.5696 4.8 34.4795 2.74286 31.9104 2.74286ZM23.0393 10.0654C23.7963 10.0654 24.4107 10.6798 24.4107 11.4368V20.2523C24.4107 21.0094 23.7963 21.6238 23.0393 21.6238C22.2822 21.6238 21.6678 21.0094 21.6678 20.2523V11.4368C21.6678 10.6798 22.2822 10.0654 23.0393 10.0654Z" fill="#EB5757"/>
</svg>
