<svg width="42" height="45" viewBox="0 0 42 45" fill="none" xmlns="http://www.w3.org/2000/svg">
<path fill-rule="evenodd" clip-rule="evenodd" d="M31.6193 0C37.107 0 41.5755 4.46625 41.5755 9.95625V35.019C41.5755 40.5225 37.0957 45 31.5945 45H20.6032C15.1155 45 10.6493 40.5337 10.6493 35.0438V32.9243C10.6493 31.9928 11.4052 31.2368 12.3368 31.2368C13.2682 31.2368 14.0243 31.9928 14.0243 32.9243V35.0438C14.0243 38.6707 16.9762 41.625 20.6032 41.625H31.5945C35.2373 41.625 38.2005 38.664 38.2005 35.019V9.95625C38.2005 6.32925 35.2463 3.375 31.6193 3.375H20.628C16.9875 3.375 14.0243 6.336 14.0243 9.9765V12.0758C14.0243 13.0072 13.2682 13.7633 12.3368 13.7633C11.4052 13.7633 10.6493 13.0072 10.6493 12.0758V9.9765C10.6493 4.47525 15.1268 0 20.628 0H31.6193ZM23.3827 14.7443L29.9728 21.3069C30.0263 21.3604 30.0761 21.4174 30.1221 21.4776L29.9729 21.3053C30.0628 21.3938 30.1414 21.4916 30.208 21.5965C30.2217 21.6227 30.237 21.6484 30.2517 21.6745C30.2774 21.7148 30.2991 21.7576 30.3189 21.8012C30.3302 21.8322 30.3431 21.863 30.3551 21.8942C30.3743 21.937 30.3892 21.981 30.4022 22.0255C30.4098 22.0606 30.4188 22.0956 30.4267 22.131C30.439 22.1739 30.4469 22.2171 30.4531 22.2606C30.4532 22.2803 30.4558 22.3011 30.458 22.322C30.467 22.3814 30.4702 22.4406 30.4702 22.5L30.4538 22.6778L30.4518 22.7289C30.4513 22.7327 30.4508 22.7365 30.4502 22.7403L30.4702 22.5C30.4702 22.6249 30.4563 22.7486 30.4295 22.8688C30.4188 22.9044 30.4098 22.9394 30.3997 22.974C30.3892 23.019 30.3743 23.063 30.3577 23.1063C30.3431 23.137 30.3302 23.1678 30.3164 23.1981C30.2991 23.2424 30.2774 23.2852 30.2538 23.3271C30.237 23.3516 30.2217 23.3773 30.2057 23.4025C30.1814 23.4454 30.1529 23.4861 30.1225 23.5256C30.1017 23.549 30.0824 23.5728 30.0624 23.5962C30.0354 23.6306 30.0049 23.6632 29.9729 23.6947L23.3827 30.2535C23.0542 30.582 22.6222 30.7463 22.1924 30.7463C21.7604 30.7463 21.3262 30.582 20.9977 30.249C20.3384 29.5875 20.3429 28.521 21.0022 27.864L24.6938 24.1875H1.6875C0.756 24.1875 0 23.4315 0 22.5C0 21.5685 0.756 20.8125 1.6875 20.8125H24.6938L21.0022 17.1337C20.3429 16.4767 20.3384 15.4102 20.9977 14.7487C21.6569 14.0872 22.7234 14.0872 23.3827 14.7443Z" fill="#050D36"/>
</svg>
