<svg width="46" height="45" viewBox="0 0 46 45" fill="none" xmlns="http://www.w3.org/2000/svg">
<path fill-rule="evenodd" clip-rule="evenodd" d="M32.2556 0C39.891 0 45.0226 5.34812 45.0226 13.306V31.694C45.0226 39.6519 39.891 45 32.2556 45H12.7444C5.1203 45 0 39.6519 0 31.694V13.306C0 5.34812 5.1203 0 12.7444 0H32.2556ZM32.2556 3.38346H12.7444C7.0579 3.38346 3.38346 7.27895 3.38346 13.306V31.694C3.38346 37.7233 7.0579 41.6165 12.7444 41.6165H32.2556C37.9556 41.6165 41.6391 37.7233 41.6391 31.694V13.306C41.6391 7.27895 37.9556 3.38346 32.2556 3.38346ZM33.697 22.7806C33.7113 22.7922 33.7253 22.8038 33.7547 22.8312L33.7983 22.8728C33.8071 22.8814 33.8168 22.8908 33.8275 22.9012L33.9534 23.0262C34.3602 23.4336 35.4845 24.5819 38.8353 28.0227C39.4872 28.6904 39.4759 29.7618 38.806 30.4137C38.1383 31.0701 37.0647 31.0498 36.4128 30.3821C36.4128 30.3821 31.791 25.6385 31.4617 25.3182C31.112 25.0317 30.5504 24.8648 29.9977 24.9189C29.4361 24.9753 28.9308 25.2438 28.5722 25.6791C23.3301 32.0377 23.2669 32.0986 23.1812 32.1821C21.2459 34.0814 18.1218 34.0498 16.2203 32.1099C16.2203 32.1099 14.1226 29.9806 14.0865 29.9377C13.5654 29.455 12.6361 29.4866 12.0789 30.0753L8.62782 33.7137C8.29399 34.0656 7.84737 34.2415 7.40075 34.2415C6.9812 34.2415 6.56391 34.0881 6.23684 33.7768C5.55789 33.1362 5.53083 32.0626 6.17368 31.3881L9.6203 27.7498C11.4451 25.8122 14.5241 25.7174 16.4707 27.5445L18.6316 29.737C19.2338 30.346 20.2128 30.3573 20.8173 29.7618C21.0451 29.4934 25.9579 23.5272 25.9579 23.5272C26.8917 22.3949 28.209 21.6956 29.6729 21.5513C31.1391 21.4227 32.5624 21.849 33.697 22.7806ZM14.7929 10.4411C17.9102 10.4434 20.4433 12.9787 20.4433 16.0892C20.4433 19.2043 17.908 21.7396 14.7929 21.7396C11.6779 21.7396 9.14481 19.2043 9.14481 16.0892C9.14481 12.9742 11.6779 10.4411 14.7929 10.4411ZM14.7907 13.8246C13.5433 13.8246 12.5283 14.8396 12.5283 16.0892C12.5283 17.3389 13.5433 18.3562 14.7929 18.3562C16.0426 18.3562 17.0598 17.3389 17.0598 16.0892C17.0598 14.8419 16.0426 13.8268 14.7907 13.8246Z" fill="white"/>
</svg>
