<svg width="32" height="32" viewBox="0 0 32 32" fill="none" xmlns="http://www.w3.org/2000/svg">
<path d="M21 23C22.1046 23 23 22.1046 23 21C23 19.8954 22.1046 19 21 19C19.8954 19 19 19.8954 19 21C19 22.1046 19.8954 23 21 23Z" fill="#050D36"/>
<path d="M7 9C8.10457 9 9 8.10457 9 7C9 5.89543 8.10457 5 7 5C5.89543 5 5 5.89543 5 7C5 8.10457 5.89543 9 7 9Z" fill="#050D36"/>
<path d="M27 31C26.2089 31 25.4355 30.7654 24.7777 30.3259C24.1199 29.8864 23.6072 29.2616 23.3045 28.5307C23.0017 27.7998 22.9225 26.9956 23.0769 26.2196C23.2312 25.4437 23.6122 24.731 24.1716 24.1716C24.731 23.6122 25.4437 23.2312 26.2196 23.0769C26.9956 22.9225 27.7998 23.0017 28.5307 23.3045C29.2616 23.6072 29.8864 24.1199 30.3259 24.7777C30.7654 25.4355 31 26.2089 31 27C30.9968 28.0599 30.5744 29.0755 29.8249 29.8249C29.0755 30.5744 28.0599 30.9968 27 31ZM27 25C26.6044 25 26.2178 25.1173 25.8889 25.3371C25.56 25.5568 25.3036 25.8692 25.1522 26.2346C25.0009 26.6001 24.9613 27.0022 25.0384 27.3902C25.1156 27.7781 25.3061 28.1345 25.5858 28.4142C25.8655 28.6939 26.2219 28.8844 26.6098 28.9616C26.9978 29.0387 27.3999 28.9991 27.7654 28.8478C28.1308 28.6964 28.4432 28.44 28.6629 28.1111C28.8827 27.7822 29 27.3956 29 27C28.9984 26.4701 28.7872 25.9623 28.4125 25.5875C28.0377 25.2128 27.5299 25.0016 27 25Z" fill="#050D36"/>
<path d="M30 15.9999C29.9892 12.2902 28.5107 8.73548 25.8875 6.11232C23.2644 3.48915 19.7097 2.01068 16 1.99986C13.6113 1.96579 11.259 2.58843 9.2 3.79986L10.3 5.49986C11.0817 5.12416 11.8828 4.79035 12.7 4.49986C11.0469 7.76178 10.1255 11.3451 10 14.9999H4C4.11205 13.3487 4.59028 11.7432 5.4 10.2999L3.9 8.99986C2.65572 11.1228 1.99987 13.5391 2 15.9999C1.99974 17.8384 2.36168 19.6591 3.06515 21.3577C3.76862 23.0564 4.79985 24.5999 6.09992 25.8999C7.39999 27.2 8.94344 28.2312 10.6421 28.9347C12.3408 29.6382 14.1614 30.0001 16 29.9999C17.7827 30.0167 19.5507 29.6766 21.2 28.9999L20.6 27.0999C18.9605 27.801 17.1798 28.1091 15.4 27.9999C13.2675 24.7199 12.0902 20.9111 12 16.9999H29.9C29.9827 16.6733 30.0164 16.3363 30 15.9999ZM12.8 27.5999C10.8115 27.0038 8.99427 25.9409 7.5 24.4999C5.51585 22.4696 4.28155 19.8247 4 16.9999H10C10.1376 20.6968 11.0939 24.3172 12.8 27.5999ZM12 14.9999C12.0795 11.1014 13.2204 7.29834 15.3 3.99986H16.7C18.7796 7.29834 19.9205 11.1014 20 14.9999H12ZM22 14.9999C21.9239 11.294 20.964 7.65987 19.2 4.39986C21.5529 5.07804 23.6444 6.45457 25.1979 8.34734C26.7514 10.2401 27.6937 12.5599 27.9 14.9999H22Z" fill="#050D36"/>
</svg>
