<svg width="39" height="30" viewBox="0 0 39 30" fill="none" xmlns="http://www.w3.org/2000/svg">
<path fill-rule="evenodd" clip-rule="evenodd" d="M19.4518 18.6074L19.6536 18.6074L20.1049 18.609C23.5544 18.6317 31.4374 18.9801 31.4374 24.3232C31.4374 29.6312 23.8292 29.9774 20.1586 30L18.7987 30C15.349 29.9773 7.46439 29.6293 7.46439 24.2929C7.46439 18.9782 15.349 18.6316 18.7987 18.6089L19.25 18.6074C19.3201 18.6074 19.3874 18.6074 19.4518 18.6074ZM19.4518 21.2875C15.2064 21.2875 10.1445 21.8093 10.1445 24.2929C10.1445 26.7203 14.9043 27.2878 19.0638 27.3199L19.4518 27.3214C23.6972 27.3214 28.7573 26.8015 28.7573 24.3232C28.7573 21.8146 23.6972 21.2875 19.4518 21.2875ZM33.663 17.8823C37.9924 18.5309 38.9018 20.5642 38.9018 22.1562C38.9018 23.1282 38.5194 24.9025 35.9644 25.8763C35.8071 25.9353 35.6463 25.9638 35.4873 25.9638C34.9477 25.9638 34.4385 25.6351 34.2348 25.1008C33.9703 24.4094 34.3188 23.6339 35.0102 23.3712C36.2217 22.9103 36.2217 22.401 36.2217 22.1562C36.2217 21.3736 35.2264 20.8269 33.2646 20.5339C32.5338 20.4231 32.0281 19.7423 32.1371 19.008C32.2461 18.2754 32.9251 17.7876 33.663 17.8823ZM6.76469 19.008C6.87369 19.7423 6.36803 20.4231 5.63725 20.5339C3.67538 20.8269 2.68015 21.3736 2.68015 22.1562C2.68015 22.401 2.68015 22.9085 3.89336 23.3712C4.58484 23.6339 4.93326 24.4094 4.66882 25.1008C4.46513 25.6351 3.9559 25.9638 3.4163 25.9638C3.25727 25.9638 3.09646 25.9353 2.93923 25.8763C0.382368 24.9007 0 23.1265 0 22.1562C0 20.566 0.909464 18.5309 5.24058 17.8823C5.97852 17.7894 6.65391 18.2754 6.76469 19.008ZM19.4518 0C23.9544 0 27.6155 3.66287 27.6155 8.16373C27.6155 12.6646 23.9544 16.3275 19.4518 16.3275H19.4036C17.2237 16.3203 15.1814 15.4662 13.652 13.9225C12.1189 12.3805 11.2809 10.3329 11.2898 8.15837C11.2898 3.66287 14.9509 0 19.4518 0ZM19.4518 2.68015C16.4286 2.68015 13.97 5.14052 13.97 8.16373C13.9646 9.62888 14.5257 10.9993 15.5531 12.0339C16.5805 13.0684 17.9491 13.642 19.4071 13.6473L19.4518 14.9874V13.6473C22.475 13.6473 24.9354 11.1887 24.9354 8.16373C24.9354 5.14052 22.475 2.68015 19.4518 2.68015ZM30.5101 1.75014C33.6512 2.26651 35.9329 4.95381 35.9329 8.13961C35.9258 11.3469 33.5297 14.0985 30.3582 14.5434C30.2957 14.5523 30.2331 14.5559 30.1724 14.5559C29.5149 14.5559 28.9413 14.0717 28.8466 13.4016C28.7448 12.6673 29.254 11.9901 29.9884 11.8882C31.8466 11.6274 33.2492 10.0157 33.2528 8.13604C33.2528 6.27244 31.9163 4.69651 30.0741 4.39455C29.3451 4.27484 28.8502 3.58514 28.9699 2.85436C29.0914 2.12357 29.7757 1.634 30.5101 1.75014ZM9.9337 2.85436C10.0534 3.58514 9.55848 4.27484 8.82948 4.39455C6.98732 4.69651 5.65082 6.27244 5.65082 8.13961C5.6544 10.0157 7.05701 11.6292 8.91346 11.8882C9.64782 11.9901 10.157 12.6673 10.0552 13.4016C9.9605 14.0717 9.38695 14.5559 8.72942 14.5559C8.66867 14.5559 8.60613 14.5523 8.5436 14.5434C5.37209 14.0985 2.97782 11.3469 2.97068 8.14318C2.97068 4.95381 5.25238 2.26651 8.39351 1.75014C9.14574 1.63221 9.8122 2.12714 9.9337 2.85436Z" fill="white"/>
</svg>
