<svg width="43" height="45" viewBox="0 0 43 45" fill="none" xmlns="http://www.w3.org/2000/svg">
<path fill-rule="evenodd" clip-rule="evenodd" d="M24.518 29.9046C27.0373 29.9046 29.088 31.9406 29.088 34.4433V40.8798C29.088 41.4176 29.5191 41.8487 30.0715 41.8612H34.0598C37.2028 41.8612 39.7577 39.3377 39.7577 36.2366V17.9815C39.7431 16.9143 39.2346 15.9099 38.362 15.2424L24.5661 4.23995C22.7142 2.7731 20.1237 2.7731 18.2655 4.24414L4.56377 15.2382C3.65771 15.9266 3.14923 16.931 3.13877 18.0171V36.2366C3.13877 39.3377 5.69372 41.8612 8.83668 41.8612H12.8627C13.4297 41.8612 13.8901 41.4113 13.8901 40.8589C13.8901 40.7376 13.9047 40.6162 13.9299 40.5011V34.4433C13.9299 31.9553 15.968 29.9214 18.4685 29.9046H24.518ZM34.0598 45H30.0338C27.7279 44.9456 25.9492 43.1356 25.9492 40.8798V34.4433C25.9492 33.6711 25.3068 33.0434 24.518 33.0434H18.479C17.7068 33.0476 17.0686 33.6774 17.0686 34.4433V40.8589C17.0686 41.0159 17.0477 41.1665 17.0038 41.3088C16.7778 43.3804 15.0075 45 12.8627 45H8.83668C3.96322 45 0 41.0682 0 36.2366V18.0024C0.0209251 15.9224 0.979296 14.0183 2.63447 12.7648L16.309 1.78962C19.3202 -0.595842 23.5156 -0.595843 26.5205 1.78544L40.2934 12.7711C41.9109 14.0036 42.8693 15.9036 42.8965 17.9585V36.2366C42.8965 41.0682 38.9333 45 34.0598 45Z" fill="#050D36"/>
</svg>
