<svg width="33" height="32" viewBox="0 0 33 32" fill="none" xmlns="http://www.w3.org/2000/svg">
<path fill-rule="evenodd" clip-rule="evenodd" d="M31.2423 20.6444C31.9118 20.6947 32.4127 21.2799 32.3625 21.9494L32.0545 26.0166C31.8 29.3723 28.968 32 25.6042 32H6.79988C3.43617 32 0.604171 29.3723 0.349664 26.0166L0.0416614 21.9494C-0.00859165 21.2799 0.493939 20.6947 1.16344 20.6444C1.83618 20.6201 2.41652 21.0951 2.4684 21.7662L2.77478 25.8318C2.93364 27.9263 4.7006 29.5684 6.79988 29.5684H25.6042C27.7035 29.5684 29.4721 27.9263 29.6294 25.8318L29.9374 21.7662C29.9892 21.0951 30.5842 20.6185 31.2423 20.6444ZM18.2936 0C20.7299 0 22.7483 1.82575 23.0523 4.18077L26.2451 4.18219C29.6428 4.18219 32.4051 6.95259 32.4051 10.3601V15.9349C32.4051 16.3677 32.1749 16.7665 31.8037 16.9837C27.8024 19.327 22.7337 20.6937 17.4176 20.876L17.4182 23.7917C17.4182 24.4629 16.8735 25.0075 16.2024 25.0075C15.5313 25.0075 14.9866 24.4629 14.9866 23.7917L14.9855 20.8765C9.67481 20.6958 4.6057 19.3287 0.601415 16.9837C0.22857 16.7665 0 16.3677 0 15.9349V10.3439C0 6.9461 2.7704 4.18219 6.17626 4.18219L9.35243 4.18077C9.65643 1.82575 11.6749 0 14.1112 0H18.2936ZM26.2451 6.61379H6.17626C4.11102 6.61379 2.4316 8.28673 2.4316 10.3439V15.2265C6.27954 17.3173 11.1306 18.4632 16.1798 18.4654L16.2024 18.4633L16.2204 18.4639L16.9923 18.4559C21.7676 18.3421 26.323 17.2092 29.9735 15.2265V10.3601C29.9735 8.29321 28.3022 6.61379 26.2451 6.61379ZM18.2936 2.4316H14.1112C13.0197 2.4316 12.0983 3.17449 11.8261 4.18118H20.5787C20.3065 3.17449 19.3851 2.4316 18.2936 2.4316Z" fill="white"/>
</svg>
