<svg width="21" height="21" viewBox="0 0 21 21" fill="none" xmlns="http://www.w3.org/2000/svg">
<path d="M18.6667 0H8.00001V3.44532H9.33334V1.37813H18.6667C19.0667 1.37813 19.3334 1.65375 19.3334 2.06719V9.64689C19.3334 10.0603 19.0667 10.336 18.6667 10.336H10V15.1594H6.46667L4 17.1577V15.1594H2C1.6 15.1594 1.33333 14.8838 1.33333 14.4703V6.89064C1.33333 6.4772 1.6 6.20158 2 6.20158H10.6667V4.82345H2C0.866668 4.82345 0 5.71923 0 6.89064V14.4703C0 15.6418 0.866668 16.5375 2 16.5375H2.66667V20.0518L6.86667 16.5375H11.3333V11.7141H18.6667C19.8 11.7141 20.6667 10.8183 20.6667 9.64689V2.06719C20.6667 0.895783 19.8 0 18.6667 0Z" fill="#EB5757"/>
<path d="M2.79883 13.7124H4.39883L4.79883 12.6099H6.8655L7.2655 13.7124H8.86551L6.59884 7.57983H4.99883L2.79883 13.7124ZM5.79883 9.30247L6.4655 11.4385H5.13217L5.79883 9.30247Z" fill="#EB5757"/>
<path d="M12 9.64697C12.7333 9.64697 13.7333 9.44025 14.6667 8.9579C15.6 9.44025 16.6667 9.64697 17.3333 9.64697V8.26882C17.3333 8.26882 16.6667 8.26882 15.9333 7.99319C16.7333 7.1663 17.3333 5.92596 17.3333 4.13437V3.44529H15.3333V2.06714H14V3.44529H12V4.82344H15.9333C15.8 6.06378 15.2667 6.82176 14.6667 7.30412C14.2667 6.95958 13.8667 6.47722 13.6 5.85706H12.2C12.4667 6.75285 12.8667 7.44193 13.4 7.99319C12.7333 8.26882 12.1333 8.26882 12 8.26882V9.64697Z" fill="#EB5757"/>
</svg>
