<svg width="38" height="34" viewBox="0 0 38 34" fill="none" xmlns="http://www.w3.org/2000/svg">
<path d="M28.2181 0C30.7511 0 33.1878 1.00111 34.9803 2.79744C36.7748 4.59 37.7778 7.00778 37.7778 9.53889V24.4611C37.7778 29.7311 33.49 34 28.2181 34H9.55778C4.28589 34 0 29.7311 0 24.4611V9.53889C0 4.26889 4.267 0 9.55778 0H28.2181ZM30.3544 9.82222C29.9578 9.80144 29.58 9.93556 29.2948 10.2L20.7778 17C19.6822 17.9086 18.1126 17.9086 17 17L8.5 10.2C7.91256 9.76556 7.10033 9.82222 6.61111 10.3322C6.10111 10.8422 6.04444 11.6544 6.477 12.2211L6.72444 12.4667L15.3189 19.1722C16.3767 20.0033 17.6592 20.4567 19.0022 20.4567C20.3414 20.4567 21.6467 20.0033 22.7026 19.1722L31.2233 12.3533L31.3744 12.2022C31.8259 11.6544 31.8259 10.8611 31.3537 10.3133C31.0911 10.0319 30.7303 9.86 30.3544 9.82222Z" fill="white"/>
</svg>
