<svg width="50" height="50" viewBox="0 0 50 50" fill="none" xmlns="http://www.w3.org/2000/svg">
<path d="M22.4155 1.26172L19.8924 2.5848L21.8155 6.43095L17.9693 4.50787L16.6462 7.03095L21.8155 9.61556H3.84623C3.786 9.61273 3.72568 9.61273 3.66546 9.61556C3.60587 9.61279 3.54619 9.61279 3.48661 9.61556C3.04109 9.7003 2.63985 9.93976 2.35377 10.2916C2.06768 10.6435 1.91516 11.0852 1.92315 11.5386V19.2309C1.92315 19.741 2.12576 20.2301 2.48641 20.5908C2.84705 20.9514 3.3362 21.154 3.84623 21.154V46.154C3.84623 46.6641 4.04884 47.1532 4.40948 47.5138C4.77013 47.8745 5.25927 48.0771 5.7693 48.0771H44.2308C44.7409 48.0771 45.23 47.8745 45.5907 47.5138C45.9513 47.1532 46.1539 46.6641 46.1539 46.154V21.154C46.664 21.154 47.1531 20.9514 47.5137 20.5908C47.8744 20.2301 48.077 19.741 48.077 19.2309V11.5386C48.077 11.0286 47.8744 10.5395 47.5137 10.1788C47.1531 9.81817 46.664 9.61556 46.1539 9.61556H28.1847L33.3539 7.03095L32.0308 4.50787L28.1847 6.43095L30.1078 2.5848L27.5847 1.26172L25.0001 6.43095L22.4155 1.26172ZM5.7693 13.4617H23.077V17.3079H6.12892C6.01121 17.2767 5.89079 17.2567 5.7693 17.2483V13.4617ZM26.9232 13.4617H44.2308V17.3079H26.9232V13.4617ZM7.69238 21.154H23.077V44.2309H7.69238V21.154ZM26.9232 21.154H42.3078V44.2309H26.9232V21.154Z" fill="white"/>
</svg>
