<svg width="18" height="18" viewBox="0 0 18 18" fill="none" xmlns="http://www.w3.org/2000/svg">
<path d="M17.3082 14.2753C17.3082 14.5753 17.2415 14.8837 17.0998 15.1837C16.9582 15.4837 16.7748 15.767 16.5332 16.0337C16.1248 16.4837 15.6748 16.8087 15.1665 17.017C14.6665 17.2253 14.1248 17.3337 13.5415 17.3337C12.6915 17.3337 11.7832 17.1337 10.8248 16.7253C9.8665 16.317 8.90817 15.767 7.95817 15.0753C6.99984 14.3753 6.0915 13.6003 5.22484 12.742C4.3665 11.8753 3.5915 10.967 2.89984 10.017C2.2165 9.06699 1.6665 8.11699 1.2665 7.17533C0.866504 6.22533 0.666504 5.31699 0.666504 4.45033C0.666504 3.88366 0.766504 3.34199 0.966504 2.84199C1.1665 2.33366 1.48317 1.86699 1.92484 1.45033C2.45817 0.925326 3.0415 0.666992 3.65817 0.666992C3.8915 0.666992 4.12484 0.716992 4.33317 0.816992C4.54984 0.916992 4.7415 1.06699 4.8915 1.28366L6.82484 4.00866C6.97484 4.21699 7.08317 4.40866 7.15817 4.59199C7.23317 4.76699 7.27484 4.94199 7.27484 5.10033C7.27484 5.30033 7.2165 5.50033 7.09984 5.69199C6.9915 5.88366 6.83317 6.08366 6.63317 6.28366L5.99984 6.94199C5.90817 7.03366 5.8665 7.14199 5.8665 7.27533C5.8665 7.34199 5.87484 7.40033 5.8915 7.46699C5.9165 7.53366 5.9415 7.58366 5.95817 7.63366C6.10817 7.90866 6.3665 8.26699 6.73317 8.70033C7.10817 9.13366 7.50817 9.57533 7.9415 10.017C8.3915 10.4587 8.82484 10.867 9.2665 11.242C9.69984 11.6087 10.0582 11.8587 10.3415 12.0087C10.3832 12.0253 10.4332 12.0503 10.4915 12.0753C10.5582 12.1003 10.6248 12.1087 10.6998 12.1087C10.8415 12.1087 10.9498 12.0587 11.0415 11.967L11.6748 11.342C11.8832 11.1337 12.0832 10.9753 12.2748 10.8753C12.4665 10.7587 12.6582 10.7003 12.8665 10.7003C13.0248 10.7003 13.1915 10.7337 13.3748 10.8087C13.5582 10.8837 13.7498 10.992 13.9582 11.1337L16.7165 13.092C16.9332 13.242 17.0832 13.417 17.1748 13.6253C17.2582 13.8337 17.3082 14.042 17.3082 14.2753Z" stroke="#EB5757" stroke-width="1.2" stroke-miterlimit="10"/>
</svg>
