<svg width="12" height="14" viewBox="0 0 12 14" fill="none" xmlns="http://www.w3.org/2000/svg">
<path d="M11.5692 8.3195C11.5033 8.38717 11.2544 8.6765 11.0226 8.9145C9.66326 10.4113 6.11723 12.8613 4.26124 13.6092C3.97938 13.7293 3.26676 13.9837 2.88602 14C2.52119 14 2.17341 13.916 1.84153 13.7457C1.42783 13.5077 1.09596 13.1332 0.91411 12.691C0.797046 12.3842 0.615198 11.466 0.615198 11.4497C0.433351 10.4452 0.333334 8.813 0.333335 7.00933C0.333335 5.29083 0.433351 3.72517 0.582239 2.7055C0.599287 2.68917 0.781135 1.54817 0.980031 1.15733C1.34486 0.443333 2.05748 -8.69203e-07 2.8201 -8.02532e-07L2.88602 -7.96769e-07C3.38269 0.0175001 4.42718 0.460834 4.42718 0.477166C6.18315 1.22617 9.64735 3.556 11.0396 5.10417C11.0396 5.10417 11.4317 5.502 11.6022 5.7505C11.8682 6.1075 12 6.54967 12 6.99183C12 7.48533 11.8511 7.945 11.5692 8.3195Z" fill="#F7C600"/>
</svg>
