<svg width="37" height="25" viewBox="0 0 37 25" fill="none" xmlns="http://www.w3.org/2000/svg">
<path d="M36.0008 0C28.007 1.19454 23.0942 8.53242 23.2607 16.4676C23.2607 18.8567 23.9269 20.9044 25.1759 22.5256C26.4249 24.2321 28.2568 25 30.5051 25C32.2537 25 33.8358 24.488 35.0848 23.2935C36.3339 22.099 37 20.6485 37 18.7713C37 17.0648 36.4171 15.6143 35.3346 14.5051C34.2521 13.3106 32.8366 12.7133 31.1712 12.7133C30.172 12.7133 29.4226 12.9693 28.8397 13.3106C28.923 11.1775 29.5891 9.21502 30.9214 7.59386C32.2537 5.88738 33.9191 4.86348 36.0008 4.43686V0Z" fill="#F7C600"/>
<path d="M12.7442 0C4.7504 1.19454 -0.16243 8.53242 0.00410461 16.4676C0.00410461 18.8567 0.67025 20.9044 1.91928 22.5256C3.1683 24.2321 5.00021 25 7.24846 25C8.99709 25 10.5792 24.488 11.8282 23.2935C13.0772 22.099 13.7434 20.6485 13.7434 18.7713C13.7434 17.0648 13.1605 15.6143 12.078 14.5051C10.9955 13.3106 9.57997 12.7133 7.9146 12.7133C6.91538 12.7133 6.16596 12.9693 5.58309 13.3106C5.66635 11.1775 6.3325 9.21502 7.6648 7.59386C8.99709 5.88738 10.6625 4.86348 12.7442 4.43686V0Z" fill="#F7C600"/>
</svg>
