<svg width="34" height="42" viewBox="0 0 34 42" fill="none" xmlns="http://www.w3.org/2000/svg">
<path d="M32.9428 5.63223L17.6783 0.430273C17.4941 0.367383 17.2471 0.335938 17 0.335938C16.7529 0.335938 16.5059 0.367383 16.3217 0.430273L1.05723 5.63223C0.684375 5.75801 0.378906 6.18926 0.378906 6.58457V28.2549C0.378906 28.6502 0.634961 29.1713 0.944922 29.4184L16.4295 41.4844C16.5867 41.6057 16.7889 41.6685 16.9955 41.6685C17.2022 41.6685 17.4088 41.6057 17.5615 41.4844L33.0461 29.4184C33.3561 29.1758 33.6121 28.6547 33.6121 28.2549V6.58457C33.6211 6.18926 33.3156 5.7625 32.9428 5.63223ZM30.3867 27.3924L17 37.8232L3.61328 27.3924V8.18379L17 3.61973L30.3867 8.18379V27.3924ZM12.1574 18.3631C12.0227 18.1789 11.807 18.0666 11.5734 18.0666H9.09375C8.80176 18.0666 8.63106 18.399 8.80176 18.6371L14.4799 26.4535C14.547 26.5454 14.6349 26.6202 14.7364 26.6717C14.8379 26.7232 14.9501 26.7501 15.0639 26.7501C15.1777 26.7501 15.2899 26.7232 15.3914 26.6717C15.4928 26.6202 15.5807 26.5454 15.6479 26.4535L25.1982 13.3049C25.3689 13.0668 25.1982 12.7344 24.9063 12.7344H22.4266C22.1975 12.7344 21.9773 12.8467 21.8426 13.0309L15.0639 22.3656L12.1574 18.3631Z" fill="#EB5757"/>
</svg>
