<svg width="46" height="46" viewBox="0 0 46 46" fill="none" xmlns="http://www.w3.org/2000/svg">
<path d="M38.9428 7.63223L23.6783 2.43027C23.4941 2.36738 23.2471 2.33594 23 2.33594C22.7529 2.33594 22.5059 2.36738 22.3217 2.43027L7.05723 7.63223C6.68438 7.75801 6.37891 8.18926 6.37891 8.58457V30.2549C6.37891 30.6502 6.63496 31.1713 6.94492 31.4184L22.4295 43.4844C22.5867 43.6057 22.7889 43.6685 22.9955 43.6685C23.2022 43.6685 23.4088 43.6057 23.5615 43.4844L39.0461 31.4184C39.3561 31.1758 39.6121 30.6547 39.6121 30.2549V8.58457C39.6211 8.18926 39.3156 7.7625 38.9428 7.63223ZM36.3867 29.3924L23 39.8232L9.61328 29.3924V10.1838L23 5.61973L36.3867 10.1838V29.3924ZM18.1574 20.3631C18.0227 20.1789 17.807 20.0666 17.5734 20.0666H15.0938C14.8018 20.0666 14.6311 20.399 14.8018 20.6371L20.4799 28.4535C20.547 28.5454 20.6349 28.6202 20.7364 28.6717C20.8379 28.7232 20.9501 28.7501 21.0639 28.7501C21.1777 28.7501 21.2899 28.7232 21.3914 28.6717C21.4928 28.6202 21.5807 28.5454 21.6479 28.4535L31.1982 15.3049C31.3689 15.0668 31.1982 14.7344 30.9063 14.7344H28.4266C28.1975 14.7344 27.9773 14.8467 27.8426 15.0309L21.0639 24.3656L18.1574 20.3631Z" fill="#219653"/>
</svg>
