<svg width="57" height="56" viewBox="0 0 57 56" fill="none" xmlns="http://www.w3.org/2000/svg">
<path d="M19.2498 0.00349975C18.7857 0.00349975 18.3406 0.187875 18.0124 0.516063C17.6842 0.844252 17.4998 1.28937 17.4998 1.7535V10.3635H8.7498C8.28567 10.3635 7.84055 10.5479 7.51237 10.8761C7.18418 11.2043 6.9998 11.6494 6.9998 12.1135V26.334L1.2808 27.93C1.03587 27.9985 0.808802 28.1195 0.615413 28.2847C0.422024 28.4499 0.26696 28.6552 0.161017 28.8864C0.0550749 29.1176 0.000799943 29.3691 0.0019717 29.6234C0.00314346 29.8778 0.0597339 30.1288 0.167802 30.359L6.4748 43.764C7.24497 42.835 8.31164 42.1997 9.4953 41.965L4.2138 30.744L26.1098 24.6435C27.3394 24.3008 28.6392 24.3008 29.8688 24.6435L51.7683 30.744L46.3783 41.9405C47.5641 42.1375 48.6464 42.7355 49.4443 43.6345L55.8318 30.3765C55.9424 30.1459 56.0012 29.8938 56.0038 29.638C56.0065 29.3822 55.9531 29.1289 55.8473 28.896C55.7415 28.6631 55.586 28.4562 55.3916 28.2899C55.1972 28.1236 54.9688 28.002 54.7223 27.9335L48.9998 26.3375V12.1135C48.9998 11.6494 48.8154 11.2043 48.4872 10.8761C48.159 10.5479 47.7139 10.3635 47.2498 10.3635H38.4998V1.75C38.4998 1.28587 38.3154 0.840751 37.9872 0.512563C37.659 0.184374 37.2139 0 36.7498 0H19.2498V0.00349975ZM34.9998 10.3635H20.9998V3.5035H34.9998V10.3635ZM45.4998 13.8635V25.361L30.8033 21.266C28.9601 20.7526 27.0115 20.7526 25.1683 21.266L10.4998 25.3645V13.8635H45.4998Z" fill="#F7C600"/>
<path d="M47.1975 46.6937L47.208 46.7287L47.257 46.8932C47.5717 47.865 48.0408 48.7797 48.6465 49.6022C49.714 51.0372 51.4185 52.3987 54.229 52.3637C54.4588 52.361 54.6869 52.4035 54.9003 52.4889C55.1137 52.5743 55.3081 52.7009 55.4726 52.8614C55.637 53.022 55.7683 53.2134 55.8588 53.4246C55.9492 53.6359 55.9972 53.8629 56 54.0927C56.0028 54.3225 55.9602 54.5507 55.8748 54.764C55.7894 54.9774 55.6628 55.1719 55.5023 55.3363C55.3417 55.5008 55.1504 55.632 54.9391 55.7225C54.7278 55.813 54.5008 55.861 54.271 55.8637C50.0605 55.9162 47.39 53.7777 45.836 51.6917C45.661 51.4537 45.4965 51.2122 45.346 50.9777C45.171 51.2227 44.982 51.4712 44.779 51.7197C43.19 53.6797 40.551 55.8637 36.75 55.8637C32.949 55.8637 30.31 53.6832 28.7105 51.7232C28.448 51.3977 28.2065 51.0722 27.986 50.7572C27.7614 51.0866 27.5232 51.4066 27.272 51.7162C25.683 53.6762 23.051 55.8637 19.25 55.8637C15.449 55.8637 12.81 53.6797 11.221 51.7197C11.011 51.4642 10.8185 51.2087 10.64 50.9602C10.493 51.1912 10.325 51.4292 10.15 51.6637C8.5995 53.7357 5.936 55.8637 1.75 55.8637C1.28587 55.8637 0.840752 55.6794 0.512563 55.3512C0.184375 55.023 0 54.5779 0 54.1137C0 53.6496 0.184375 53.2045 0.512563 52.8763C0.840752 52.5481 1.28587 52.3637 1.75 52.3637C4.564 52.3637 6.2755 50.9987 7.35 49.5637C7.95549 48.749 8.42694 47.8427 8.7465 46.8792L8.7955 46.7182L8.8025 46.6867V46.6902C8.89294 46.3283 9.09667 46.0048 9.38395 45.7668C9.67123 45.5288 10.027 45.3889 10.3995 45.3674C10.7719 45.3459 11.1414 45.444 11.4542 45.6473C11.7669 45.8507 12.0065 46.1486 12.138 46.4977V46.5012L12.152 46.5362C12.608 47.605 13.2086 48.606 13.937 49.5112C15.19 51.0512 16.926 52.3637 19.25 52.3637C21.574 52.3637 23.3065 51.0547 24.5525 49.5147C25.2384 48.6603 25.8102 47.7202 26.2535 46.7182L26.3235 46.5397L26.341 46.5047C26.4659 46.1723 26.6889 45.8857 26.9805 45.683C27.2721 45.4804 27.6185 45.3712 27.9736 45.3701C28.3287 45.369 28.6758 45.4759 28.9687 45.6767C29.2616 45.8775 29.4865 46.1626 29.6135 46.4942L29.631 46.5327C30.0898 47.6015 30.6928 48.6024 31.423 49.5077C32.683 51.0512 34.426 52.3637 36.75 52.3637C39.074 52.3637 40.8135 51.0547 42.0665 49.5147C42.7545 48.6592 43.3286 47.718 43.7745 46.7147L43.8445 46.5362L43.862 46.5012C43.9935 46.1521 44.2331 45.8542 44.5458 45.6508C44.8586 45.4475 45.2281 45.3494 45.6005 45.3709C45.973 45.3924 46.3288 45.5323 46.6161 45.7703C46.9033 46.0083 47.1071 46.3318 47.1975 46.6937Z" fill="#EB5757"/>
</svg>
