<svg width="60" height="60" viewBox="0 0 60 60" fill="none" xmlns="http://www.w3.org/2000/svg">
<path d="M21.875 5C21.3777 5 20.9008 5.19754 20.5492 5.54917C20.1975 5.90081 20 6.37772 20 6.875V12.5H14.375C13.8777 12.5 13.4008 12.6975 13.0492 13.0492C12.6975 13.4008 12.5 13.8777 12.5 14.375V26.285L8.85 27.6225C8.60628 27.7115 8.38369 27.8502 8.19633 28.0297C8.00896 28.2092 7.8609 28.4257 7.7615 28.6654C7.6621 28.9051 7.61353 29.1628 7.61887 29.4222C7.6242 29.6816 7.68333 29.9371 7.7925 30.1725L13.63 42.72C14.4838 42.4382 15.4037 42.4264 16.2645 42.6864C17.1252 42.9463 17.8849 43.4652 18.44 44.1725L12.055 30.4425L28.5225 24.4125C29.4823 24.0609 30.5348 24.0565 31.4975 24.4L48.435 30.445L41.88 43.8075C42.4761 43.2011 43.236 42.7816 44.0668 42.6005C44.8975 42.4193 45.7631 42.4843 46.5575 42.7875L52.7275 30.21C52.844 29.9729 52.909 29.7138 52.9184 29.4498C52.9278 29.1858 52.8812 28.9228 52.7819 28.678C52.6825 28.4333 52.5325 28.2123 52.3418 28.0295C52.151 27.8467 51.9238 27.7063 51.675 27.6175L47.5 26.1275V14.375C47.5 13.8777 47.3025 13.4008 46.9508 13.0492C46.5992 12.6975 46.1223 12.5 45.625 12.5H40V6.875C40 6.37772 39.8025 5.90081 39.4508 5.54917C39.0992 5.19754 38.6223 5 38.125 5H21.875ZM36.25 12.5H23.75V8.75H36.25V12.5ZM43.75 16.25V24.79L32.7575 20.8675C30.9695 20.2302 29.0147 20.239 27.2325 20.8925L16.25 24.91V16.25H43.75ZM46.8175 46.41L46.81 46.385C46.7035 45.9926 46.4723 45.6454 46.1513 45.3959C45.8304 45.1463 45.4369 45.0078 45.0304 45.0013C44.6238 44.9948 44.2262 45.1207 43.8974 45.3599C43.5686 45.5991 43.3265 45.9387 43.2075 46.3275V46.3325L43.1975 46.355L43.1475 46.5C42.8304 47.3485 42.3953 48.148 41.855 48.875C40.8875 50.1625 39.5075 51.25 37.5 51.25C35.4925 51.25 34.11 50.1625 33.1425 48.875C32.5711 48.1058 32.1178 47.2556 31.7975 46.3525L31.79 46.33C31.6727 45.9455 31.4349 45.609 31.1118 45.3699C30.7887 45.1308 30.3973 45.0019 29.9953 45.0022C29.5934 45.0025 29.2022 45.1319 28.8794 45.3715C28.5566 45.611 28.3193 45.9479 28.2025 46.3325V46.335L28.1925 46.36C28.1079 46.606 28.012 46.8479 27.905 47.085C27.6825 47.58 27.3375 48.235 26.855 48.875C25.8925 50.1625 24.515 51.25 22.5 51.25C20.485 51.25 19.105 50.1625 18.14 48.875C17.5712 48.1072 17.1204 47.2586 16.8025 46.3575L16.795 46.33C16.6768 45.941 16.4354 45.6009 16.1071 45.3611C15.7788 45.1212 15.3815 44.9946 14.9749 45.0002C14.5684 45.0059 14.1747 45.1435 13.8532 45.3924C13.5317 45.6412 13.2998 45.9879 13.1925 46.38L13.185 46.4025L13.14 46.5375C12.8458 47.3682 12.4204 48.1464 11.88 48.8425C10.92 50.0675 9.39 51.25 6.875 51.25C6.37772 51.25 5.90081 51.4475 5.54917 51.7992C5.19754 52.1508 5 52.6277 5 53.125C5 53.6223 5.19754 54.0992 5.54917 54.4508C5.90081 54.8025 6.37772 55 6.875 55C10.81 55 13.3425 53.0575 14.8325 51.1575L15 50.935L15.14 51.125C16.52 52.9625 18.89 55 22.5 55C26.11 55 28.48 52.9625 29.8575 51.125L30 50.93L30.145 51.1275C31.525 52.9625 33.895 55 37.5 55C41.105 55 43.475 52.9625 44.855 51.125L44.9925 50.9375C45.045 51.0125 45.1 51.0825 45.1575 51.155C46.645 53.0575 49.1825 55 53.125 55C53.6223 55 54.0992 54.8025 54.4508 54.4508C54.8025 54.0992 55 53.6223 55 53.125C55 52.6277 54.8025 52.1508 54.4508 51.7992C54.0992 51.4475 53.6223 51.25 53.125 51.25C50.595 51.25 49.0675 50.0675 48.1125 48.845C47.5459 48.1126 47.108 47.2892 46.8175 46.41Z" fill="white"/>
</svg>
