<svg width="32" height="30" viewBox="0 0 32 30" fill="none" xmlns="http://www.w3.org/2000/svg">
<path fill-rule="evenodd" clip-rule="evenodd" d="M15.8103 2.43237C15.6627 2.43237 15.2995 2.47291 15.1065 2.85885L12.1455 8.77924C11.6769 9.7149 10.7737 10.3652 9.72936 10.5143L3.10033 11.4694C2.6625 11.5327 2.51332 11.857 2.46791 11.9932C2.42737 12.1246 2.36251 12.4586 2.66412 12.7473L7.45752 17.3526C8.22128 18.0871 8.5683 19.146 8.38669 20.1822L7.25806 26.6848C7.18834 27.0918 7.44292 27.3285 7.55644 27.4096C7.67643 27.5004 7.99751 27.6804 8.39479 27.4728L14.3217 24.3999C15.2557 23.9183 16.3681 23.9183 17.2989 24.3999L23.2242 27.4712C23.6231 27.6772 23.9441 27.4972 24.0658 27.4096C24.1793 27.3285 24.4339 27.0918 24.3641 26.6848L23.2323 20.1822C23.0506 19.146 23.3977 18.0871 24.1614 17.3526L28.9548 12.7473C29.2581 12.4586 29.1932 12.1229 29.151 11.9932C29.1073 11.857 28.9581 11.5327 28.5202 11.4694L21.8912 10.5143C20.8485 10.3652 19.9453 9.7149 19.4767 8.77762L16.5124 2.85885C16.3211 2.47291 15.9579 2.43237 15.8103 2.43237ZM8.02183 29.9993C7.35212 29.9993 6.68727 29.7885 6.11809 29.3733C5.13541 28.6534 4.6538 27.4647 4.86299 26.268L5.99161 19.7655C6.03377 19.5238 5.95107 19.279 5.7727 19.1071L0.9793 14.5018C0.0971589 13.657 -0.21905 12.4083 0.153914 11.2489C0.530121 10.0765 1.52577 9.23815 2.75331 9.06302L9.38234 8.10791C9.63855 8.07224 9.85908 7.91494 9.96935 7.69116L12.932 1.76915C13.4785 0.677821 14.5811 0 15.8103 0C17.0394 0 18.1421 0.677821 18.6886 1.76915L21.6528 7.68954C21.7647 7.91494 21.9837 8.07224 22.2382 8.10791L28.8673 9.06302C30.0948 9.23815 31.0905 10.0765 31.4667 11.2489C31.8396 12.4083 31.5218 13.657 30.6397 14.5018L25.8463 19.1071C25.6679 19.279 25.5868 19.5238 25.629 19.7638L26.7592 26.268C26.9668 27.4664 26.4852 28.655 25.5009 29.3733C24.5036 30.1047 23.2047 30.2036 22.1036 29.6295L16.18 26.5599C15.9481 26.4399 15.6708 26.4399 15.4389 26.5599L9.51531 29.6312C9.0418 29.8776 8.53101 29.9993 8.02183 29.9993Z" fill="white"/>
</svg>
