<svg width="40" height="40" viewBox="0 0 40 40" fill="none" xmlns="http://www.w3.org/2000/svg">
<path d="M22.5 32.5H32.5V35H22.5V32.5ZM22.5 27.5H37.5V30H22.5V27.5ZM22.5 22.5H37.5V25H22.5V22.5Z" fill="white"/>
<path d="M25.6863 14.0212L20.0001 2.5L14.3138 14.0212L1.6001 15.8687L10.8001 24.8375L8.6276 37.5L17.5001 32.8362V30.0113L11.9488 32.93L13.2638 25.26L13.4863 23.9637L12.5451 23.0475L6.9726 17.6137L14.6739 16.495L15.9738 16.3062L16.5563 15.1275L20.0001 8.14875L23.4438 15.1275L24.0264 16.3062L25.3263 16.495L34.6438 17.8512L35.0001 15.375L25.6863 14.0212Z" fill="white"/>
</svg>
