<svg width="50" height="50" viewBox="0 0 50 50" fill="none" xmlns="http://www.w3.org/2000/svg">
<path d="M46.8753 16.6877L43.7503 7.31267C43.6416 6.98926 43.43 6.71033 43.1478 6.51848C42.8657 6.32662 42.5285 6.23239 42.1878 6.25017H7.81278C7.47205 6.23239 7.13487 6.32662 6.85273 6.51848C6.57059 6.71033 6.359 6.98926 6.25028 7.31267L3.12528 16.6877C3.10277 16.8536 3.10277 17.0218 3.12528 17.1877V26.5627C3.12528 26.9771 3.2899 27.3745 3.58293 27.6675C3.87595 27.9606 4.27338 28.1252 4.68778 28.1252H6.25028V43.7502H9.37528V28.1252H18.7503V43.7502H43.7503V28.1252H45.3128C45.7272 28.1252 46.1246 27.9606 46.4176 27.6675C46.7107 27.3745 46.8753 26.9771 46.8753 26.5627V17.1877C46.8978 17.0218 46.8978 16.8536 46.8753 16.6877ZM40.6253 40.6252H21.8753V28.1252H40.6253V40.6252ZM43.7503 25.0002H37.5003V18.7502H34.3753V25.0002H26.5628V18.7502H23.4378V25.0002H15.6253V18.7502H12.5003V25.0002H6.25028V17.4377L8.93778 9.37517H41.0628L43.7503 17.4377V25.0002Z" fill="#EB5757"/>
</svg>
