<svg width="30" height="30" viewBox="0 0 30 30" fill="none" xmlns="http://www.w3.org/2000/svg">
<path fill-rule="evenodd" clip-rule="evenodd" d="M21.501 0C26.5845 0 30 3.567 30 8.874V21.126C30 26.433 26.5845 30 21.4995 30H8.4975C3.414 30 0 26.433 0 21.126V8.874C0 3.567 3.414 0 8.4975 0H21.501ZM21.501 2.25H8.4975C4.7025 2.25 2.25 4.8495 2.25 8.874V21.126C2.25 25.1505 4.7025 27.75 8.4975 27.75H21.4995C25.296 27.75 27.75 25.1505 27.75 21.126V8.874C27.75 4.8495 25.2975 2.25 21.501 2.25ZM14.9986 7.3254C15.6196 7.3254 16.1236 7.8294 16.1236 8.4504V14.3544L20.6626 17.0589C21.1952 17.3784 21.3706 18.0684 21.0527 18.6024C20.8412 18.9549 20.4676 19.1514 20.0851 19.1514C19.8886 19.1514 19.6906 19.1004 19.5091 18.9939L14.4226 15.9594C14.0836 15.7554 13.8736 15.3879 13.8736 14.9934V8.4504C13.8736 7.8294 14.3776 7.3254 14.9986 7.3254Z" fill="white"/>
</svg>
