<svg width="70" height="70" viewBox="0 0 70 70" fill="none" xmlns="http://www.w3.org/2000/svg">
<path d="M65.625 54.6875H4.375V59.0625H8.75V63.4375H13.125V59.0625H24.0625V63.4375H28.4375V59.0625H39.375V63.4375H43.75V59.0625H54.6875V63.4375H59.0625V59.0625H65.625V54.6875ZM17.5 35H4.375V30.625H17.5V26.25H4.375V21.875H17.5C18.66 21.8762 19.7721 22.3375 20.5923 23.1577C21.4125 23.9779 21.8738 25.09 21.875 26.25V30.625C21.8738 31.785 21.4125 32.8971 20.5923 33.7173C19.7721 34.5375 18.66 34.9988 17.5 35Z" fill="#EB5757"/>
<path d="M62.4531 31.1281L43.6844 13.9256C40.0559 10.5925 35.307 8.74507 30.38 8.75001H4.375V13.125H26.25V21.875C26.2512 23.035 26.7125 24.1471 27.5327 24.9673C28.3529 25.7875 29.465 26.2489 30.625 26.25H50.6538L59.4956 34.3547C60.2993 35.0907 60.8619 36.0525 61.1095 37.1138C61.3571 38.1751 61.2783 39.2864 60.8834 40.3022C60.4884 41.3179 59.7958 42.1906 58.8963 42.8058C57.9967 43.4211 56.9323 43.7502 55.8425 43.75H4.375V48.125H55.8403C57.8117 48.1251 59.7372 47.5297 61.3644 46.4167C62.9916 45.3038 64.2447 43.7254 64.9595 41.8881C65.6743 40.0509 65.8175 38.0405 65.3702 36.1205C64.923 34.2005 63.9062 32.4604 62.4531 31.1281ZM30.625 21.875V13.1359C34.3708 13.1888 37.9663 14.6176 40.7269 17.15L45.8828 21.875H30.625Z" fill="#F7C600"/>
</svg>
