<svg width="46" height="46" viewBox="0 0 46 46" fill="none" xmlns="http://www.w3.org/2000/svg">
<path d="M24.426 23C25.5697 23 26.6666 23.4544 27.4754 24.2631C28.2841 25.0719 28.7385 26.1688 28.7385 27.3125L28.7356 29.463C29.0318 34.7444 24.9636 37.3779 17.4225 37.3779C9.90725 37.375 5.75 34.7789 5.75 29.5406V27.3125C5.75 26.1688 6.20435 25.0719 7.0131 24.2631C7.82185 23.4544 8.91875 23 10.0625 23H24.426ZM35.926 23C37.0697 23 38.1666 23.4544 38.9754 24.2631C39.7841 25.0719 40.2385 26.1688 40.2385 27.3125V28.8276C40.4973 33.5628 36.9035 35.9375 30.337 35.9375C29.4458 35.9375 28.6063 35.8944 27.8243 35.8081C28.658 35.0376 29.2819 34.1205 29.6786 33.0539L30.337 33.0625C35.466 33.0625 37.5159 31.7084 37.3635 28.9053V27.3125C37.3635 26.9313 37.2121 26.5656 36.9425 26.296C36.6729 26.0265 36.3073 25.875 35.926 25.875H29.9949C29.7064 24.7614 29.0905 23.7599 28.2268 23H35.926ZM24.426 25.875H10.0625C9.68125 25.875 9.31562 26.0265 9.04603 26.296C8.77645 26.5656 8.625 26.9313 8.625 27.3125V29.5406C8.625 32.8325 11.293 34.5 17.4225 34.5C23.529 34.5 26.0475 32.8699 25.8635 29.5406V27.3125C25.8635 26.9313 25.712 26.5656 25.4425 26.296C25.1729 26.0265 24.8073 25.875 24.426 25.875ZM17.25 5.75C19.1562 5.75 20.9844 6.50725 22.3323 7.85517C23.6803 9.20309 24.4375 11.0313 24.4375 12.9375C24.4375 14.8437 23.6803 16.6719 22.3323 18.0198C20.9844 19.3678 19.1562 20.125 17.25 20.125C15.3438 20.125 13.5156 19.3678 12.1677 18.0198C10.8198 16.6719 10.0625 14.8437 10.0625 12.9375C10.0625 11.0313 10.8198 9.20309 12.1677 7.85517C13.5156 6.50725 15.3438 5.75 17.25 5.75ZM31.625 8.625C33.15 8.625 34.6125 9.2308 35.6909 10.3091C36.7692 11.3875 37.375 12.85 37.375 14.375C37.375 15.9 36.7692 17.3625 35.6909 18.4409C34.6125 19.5192 33.15 20.125 31.625 20.125C30.1 20.125 28.6375 19.5192 27.5591 18.4409C26.4808 17.3625 25.875 15.9 25.875 14.375C25.875 12.85 26.4808 11.3875 27.5591 10.3091C28.6375 9.2308 30.1 8.625 31.625 8.625ZM17.25 8.625C16.1063 8.625 15.0094 9.07935 14.2006 9.8881C13.3919 10.6969 12.9375 11.7938 12.9375 12.9375C12.9375 14.0812 13.3919 15.1782 14.2006 15.9869C15.0094 16.7957 16.1063 17.25 17.25 17.25C18.3937 17.25 19.4906 16.7957 20.2994 15.9869C21.1082 15.1782 21.5625 14.0812 21.5625 12.9375C21.5625 11.7938 21.1082 10.6969 20.2994 9.8881C19.4906 9.07935 18.3937 8.625 17.25 8.625ZM31.625 11.5C30.8625 11.5 30.1312 11.8029 29.5921 12.3421C29.0529 12.8812 28.75 13.6125 28.75 14.375C28.75 15.1375 29.0529 15.8688 29.5921 16.4079C30.1312 16.9471 30.8625 17.25 31.625 17.25C32.3875 17.25 33.1188 16.9471 33.6579 16.4079C34.1971 15.8688 34.5 15.1375 34.5 14.375C34.5 13.6125 34.1971 12.8812 33.6579 12.3421C33.1188 11.8029 32.3875 11.5 31.625 11.5Z" fill="#2D9CDB"/>
</svg>
