<svg width="36" height="33" viewBox="0 0 36 33" fill="none" xmlns="http://www.w3.org/2000/svg">
<path d="M19.426 18C20.5697 18 21.6666 18.4544 22.4754 19.2631C23.2841 20.0719 23.7385 21.1688 23.7385 22.3125L23.7356 24.463C24.0318 29.7444 19.9636 32.3779 12.4225 32.3779C4.90725 32.375 0.75 29.7789 0.75 24.5406V22.3125C0.75 21.1688 1.20435 20.0719 2.0131 19.2631C2.82185 18.4544 3.91875 18 5.0625 18H19.426ZM30.926 18C32.0697 18 33.1666 18.4544 33.9754 19.2631C34.7841 20.0719 35.2385 21.1688 35.2385 22.3125V23.8276C35.4973 28.5628 31.9035 30.9375 25.337 30.9375C24.4458 30.9375 23.6063 30.8944 22.8243 30.8081C23.658 30.0376 24.2819 29.1205 24.6786 28.0539L25.337 28.0625C30.466 28.0625 32.5159 26.7084 32.3635 23.9053V22.3125C32.3635 21.9313 32.2121 21.5656 31.9425 21.296C31.6729 21.0265 31.3073 20.875 30.926 20.875H24.9949C24.7064 19.7614 24.0905 18.7599 23.2268 18H30.926ZM19.426 20.875H5.0625C4.68125 20.875 4.31562 21.0265 4.04603 21.296C3.77645 21.5656 3.625 21.9313 3.625 22.3125V24.5406C3.625 27.8325 6.293 29.5 12.4225 29.5C18.529 29.5 21.0475 27.8699 20.8635 24.5406V22.3125C20.8635 21.9313 20.712 21.5656 20.4425 21.296C20.1729 21.0265 19.8073 20.875 19.426 20.875ZM12.25 0.75C14.1562 0.75 15.9844 1.50725 17.3323 2.85517C18.6803 4.20309 19.4375 6.03126 19.4375 7.9375C19.4375 9.84375 18.6803 11.6719 17.3323 13.0198C15.9844 14.3678 14.1562 15.125 12.25 15.125C10.3438 15.125 8.51559 14.3678 7.16767 13.0198C5.81975 11.6719 5.0625 9.84375 5.0625 7.9375C5.0625 6.03126 5.81975 4.20309 7.16767 2.85517C8.51559 1.50725 10.3438 0.75 12.25 0.75ZM26.625 3.625C28.15 3.625 29.6125 4.2308 30.6909 5.30914C31.7692 6.38747 32.375 7.85001 32.375 9.375C32.375 10.9 31.7692 12.3625 30.6909 13.4409C29.6125 14.5192 28.15 15.125 26.625 15.125C25.1 15.125 23.6375 14.5192 22.5591 13.4409C21.4808 12.3625 20.875 10.9 20.875 9.375C20.875 7.85001 21.4808 6.38747 22.5591 5.30914C23.6375 4.2308 25.1 3.625 26.625 3.625ZM12.25 3.625C11.1063 3.625 10.0094 4.07935 9.2006 4.8881C8.39185 5.69685 7.9375 6.79376 7.9375 7.9375C7.9375 9.08125 8.39185 10.1782 9.2006 10.9869C10.0094 11.7957 11.1063 12.25 12.25 12.25C13.3937 12.25 14.4906 11.7957 15.2994 10.9869C16.1082 10.1782 16.5625 9.08125 16.5625 7.9375C16.5625 6.79376 16.1082 5.69685 15.2994 4.8881C14.4906 4.07935 13.3937 3.625 12.25 3.625ZM26.625 6.5C25.8625 6.5 25.1312 6.8029 24.5921 7.34207C24.0529 7.88124 23.75 8.6125 23.75 9.375C23.75 10.1375 24.0529 10.8688 24.5921 11.4079C25.1312 11.9471 25.8625 12.25 26.625 12.25C27.3875 12.25 28.1188 11.9471 28.6579 11.4079C29.1971 10.8688 29.5 10.1375 29.5 9.375C29.5 8.6125 29.1971 7.88124 28.6579 7.34207C28.1188 6.8029 27.3875 6.5 26.625 6.5Z" fill="#EB5757"/>
</svg>
