<svg width="70" height="70" viewBox="0 0 70 70" fill="none" xmlns="http://www.w3.org/2000/svg">
<path d="M8.75 35H35V39.375H8.75V35ZM4.375 24.0625H26.25V28.4375H4.375V24.0625Z" fill="#EB5757"/>
<path d="M65.4479 36.3256L58.8854 21.0131C58.717 20.6195 58.4367 20.2841 58.0793 20.0484C57.7219 19.8128 57.3032 19.6873 56.8751 19.6875H50.3126V15.3125C50.3126 14.7323 50.0821 14.1759 49.6719 13.7657C49.2616 13.3555 48.7052 13.125 48.1251 13.125H13.1251V17.5H45.9376V44.9662C44.9408 45.545 44.0685 46.3155 43.3709 47.233C42.6733 48.1506 42.1643 49.1972 41.8732 50.3125H28.1269C27.5945 48.2504 26.3283 46.4533 24.5657 45.2581C22.803 44.0628 20.665 43.5514 18.5522 43.8197C16.4395 44.0881 14.4972 45.1178 13.0894 46.7157C11.6815 48.3137 10.9048 50.3703 10.9048 52.5C10.9048 54.6297 11.6815 56.6863 13.0894 58.2843C14.4972 59.8822 16.4395 60.9119 18.5522 61.1803C20.665 61.4486 22.803 60.9372 24.5657 59.7419C26.3283 58.5467 27.5945 56.7496 28.1269 54.6875H41.8732C42.349 56.5649 43.4373 58.23 44.9658 59.4194C46.4943 60.6089 48.3758 61.2547 50.3126 61.2547C52.2493 61.2547 54.1308 60.6089 55.6593 59.4194C57.1878 58.23 58.2761 56.5649 58.7519 54.6875H63.4376C64.0177 54.6875 64.5741 54.457 64.9844 54.0468C65.3946 53.6366 65.6251 53.0802 65.6251 52.5V37.1875C65.6252 36.8912 65.5649 36.5979 65.4479 36.3256ZM19.6876 56.875C18.8223 56.875 17.9764 56.6184 17.2569 56.1377C16.5375 55.6569 15.9767 54.9737 15.6456 54.1742C15.3145 53.3748 15.2278 52.4951 15.3966 51.6465C15.5654 50.7978 15.9821 50.0183 16.594 49.4064C17.2058 48.7946 17.9854 48.3779 18.834 48.2091C19.6827 48.0403 20.5624 48.1269 21.3618 48.458C22.1612 48.7892 22.8445 49.3499 23.3252 50.0694C23.806 50.7888 24.0626 51.6347 24.0626 52.5C24.0614 53.66 23.6001 54.7721 22.7799 55.5923C21.9597 56.4125 20.8475 56.8738 19.6876 56.875ZM50.3126 24.0625H55.4313L60.1213 35H50.3126V24.0625ZM50.3126 56.875C49.4473 56.875 48.6014 56.6184 47.8819 56.1377C47.1625 55.6569 46.6017 54.9737 46.2706 54.1742C45.9395 53.3748 45.8528 52.4951 46.0216 51.6465C46.1904 50.7978 46.6071 50.0183 47.219 49.4064C47.8308 48.7946 48.6104 48.3779 49.459 48.2091C50.3077 48.0403 51.1874 48.1269 51.9868 48.458C52.7862 48.7892 53.4695 49.3499 53.9502 50.0694C54.431 50.7888 54.6876 51.6347 54.6876 52.5C54.6864 53.66 54.2251 54.7721 53.4049 55.5923C52.5847 56.4125 51.4725 56.8738 50.3126 56.875ZM61.2501 50.3125H58.7519C58.2701 48.4388 57.1801 46.7779 55.6528 45.5903C54.1255 44.4026 52.2473 43.7554 50.3126 43.75V39.375H61.2501V50.3125Z" fill="#F7C600"/>
</svg>
