<svg width="35" height="32" viewBox="0 0 35 32" fill="none" xmlns="http://www.w3.org/2000/svg">
<path fill-rule="evenodd" clip-rule="evenodd" d="M24.4377 0C29.9571 0 34.4468 4.48965 34.4468 10.0107V21.9893C34.4468 27.5087 29.9571 32 24.4377 32H10.0107C4.49132 32 0 27.5087 0 21.9893V10.0107C0 4.48965 4.49132 0 10.0107 0H24.4377ZM24.4377 2.50352H10.0107C5.87159 2.50352 2.50352 5.87159 2.50352 10.0107V21.9893C2.50352 26.1284 5.87159 29.4965 10.0107 29.4965H24.4377C28.5769 29.4965 31.9433 26.1284 31.9433 21.9893V21.5219L26.439 21.5229C23.2729 21.5229 20.6959 18.9476 20.6943 15.7832C20.6943 12.6154 23.2712 10.0385 26.439 10.0368L31.9433 10.0358V10.0107C31.9433 5.87159 28.5769 2.50352 24.4377 2.50352ZM31.9433 12.5393L26.439 12.5403C24.6515 12.542 23.1978 13.9957 23.1978 15.7815C23.1978 17.5657 24.6532 19.0194 26.439 19.0194L31.9433 19.0184V12.5393ZM27.2028 14.4263C27.8937 14.4263 28.4545 14.9871 28.4545 15.678C28.4545 16.369 27.8937 16.9298 27.2028 16.9298H26.682C25.9911 16.9298 25.4303 16.369 25.4303 15.678C25.4303 14.9871 25.9911 14.4263 26.682 14.4263H27.2028ZM17.8334 7.57415C18.5244 7.57415 19.0852 8.13494 19.0852 8.82591C19.0852 9.51688 18.5244 10.0777 17.8334 10.0777H8.82241C8.13144 10.0777 7.57065 9.51688 7.57065 8.82591C7.57065 8.13494 8.13144 7.57415 8.82241 7.57415H17.8334Z" fill="#EB5757"/>
</svg>
